<svg clip-rule="evenodd" fill-rule="evenodd" stroke-linejoin="round" stroke-miterlimit="2" viewBox="0 0 64 64" xmlns="http://www.w3.org/2000/svg"><path d="m-.000738-.001h64v64h-64z" fill="none"/><g transform="matrix(1.16307 0 0 1.16307 -9.402 -10.638)"><path d="m11.997 27.917v32.175l31.659-.006 16.489-11.9v-20.094z" fill="#fff" fill-rule="nonzero" stroke="#676e78" stroke-width=".86"/><path d="m19.207 18.736c.006-.651-.75-2.315-.445-2.881-.147-.502 1.699-3.582 1.699-3.582h-8.461l-.003 15 48.148.305-.145-15.305-6.651-.375-1.964 3.499c.365 1.011.672 1.877.782 2.139.36.543.732 3.226.732 3.226-.019 1.919-2.654 2.238-2.927 2.238-2.438-.366-2.744-2.08-2.723-4.286.006-.651-.311-2.672-.307-2.715.014-.144 1.538-3.726 1.538-3.726h-22.914l-2.201 3.124c.366 1.011 1.616 4.631 1.616 4.632-.021 2.191-1.222 2.746-3.029 2.971-1.806.225-2.765-2.058-2.745-4.264z" fill="#8fcceb" fill-rule="nonzero"/><path d="m60.145 48.186-17.211-.353s.757 3.941.204 3.941c-.502 0-.898 2.368-.97 1.887v6.684l1.682-.077z" fill="#eae5e5" fill-rule="nonzero"/><g fill="none" stroke-linecap="round" stroke-miterlimit="10" stroke-width="2"><path d="m53.349 12.273h6.651v16h-48v-16h8.461" stroke="#b3b3b3"/><path d="m25.566 12.273h22.914" stroke="#b3b3b3"/><path d="m53.349 12.275-1.964 3.122s.994 2.767 1.085 2.899c.34.492.537 1.09.531 1.733-.016 1.656-1.372 2.987-3.029 2.971s-2.987-1.372-2.971-3.029c.006-.621.2-1.196.528-1.672.082-.118-.909-2.902-.909-2.902l1.86-3.134" stroke="#b3b3b3"/><path d="m25.33 12.275-1.965 3.122s.994 2.767 1.085 2.899c.34.492.537 1.09.531 1.733-.016 1.656-1.372 2.987-3.029 2.971-1.656-.016-2.987-1.372-2.971-3.029.006-.621.2-1.196.529-1.672.081-.118-.909-2.902-.909-2.902l1.86-3.134" stroke="#b3b3b3"/><path d="m34.336 38.092c.524-2.564 2.793-4.494 5.513-4.494 1.554 0 2.961.63 3.979 1.649 1.585 1.584 1.438 4.217-.048 5.893l-9.559 10.78h4.76" stroke="#676e78"/><path d="m23.276 37.398 5.072-3.8v18.322" stroke="#676e78"/><path d="m11.997 28.092v32l31.659-.006 16.341-12.048v-19.946" stroke="#b3b3b3"/><path d="m59.746 48.038h-16.608v5.48" stroke="#b3b3b3"/></g></g></svg>